{
    "asset" : {
        "generator" : "Khronos glTF Blender I/O v3.2.43",
        "version" : "2.0"
    },
    "scene" : 0,
    "scenes" : [
        {
            "name" : "Scene",
            "nodes" : [
                6
            ]
        }
    ],
    "nodes" : [
        {
            "mesh" : 0,
            "name" : "color",
            "translation" : [
                -0.6961266994476318,
                17.652698516845703,
                64.44595336914062
            ]
        },
        {
            "mesh" : 1,
            "name" : "color-2",
            "translation" : [
                13.61303997039795,
                19.478456497192383,
                64.61285400390625
            ]
        },
        {
            "mesh" : 2,
            "name" : "color-5",
            "translation" : [
                -6.970493316650391,
                15.254329681396484,
                64.0633773803711
            ]
        },
        {
            "mesh" : 3,
            "name" : "color-8",
            "translation" : [
                -9.627944946289062,
                15.253713607788086,
                73.94396209716797
            ]
        },
        {
            "children" : [
                0,
                1,
                2,
                3
            ],
            "name" : "Default",
            "translation" : [
                -0.0206315815448761,
                -0.008595943450927734,
                -0.30173492431640625
            ]
        },
        {
            "children" : [
                4
            ],
            "name" : "FINALNONSTOP (Default)",
            "rotation" : [
                0,
                0,
                -0.1961161345243454,
                0.9805806875228882
            ],
            "translation" : [
                -5.000000476837158,
                -13,
                -64.13020324707031
            ]
        },
        {
            "children" : [
                5
            ],
            "name" : "Root",
            "scale" : [
                0.12771472334861755,
                0.12771472334861755,
                0.12771472334861755
            ]
        }
    ],
    "materials" : [
        {
            "doubleSided" : true,
            "name" : "color",
            "pbrMetallicRoughness" : {
                "baseColorFactor" : [
                    0.9833102822303772,
                    0.9833102822303772,
                    0.9833102822303772,
                    1
                ],
                "metallicFactor" : 0.0740736722946167,
                "roughnessFactor" : 0.013365349732339382
            }
        },
        {
            "doubleSided" : true,
            "name" : "color-2",
            "pbrMetallicRoughness" : {
                "baseColorFactor" : [
                    0.9076840877532959,
                    0.18529069423675537,
                    0.00046114769065752625,
                    1
                ],
                "metallicFactor" : 0.13907399773597717,
                "roughnessFactor" : 0.013365349732339382
            }
        },
        {
            "doubleSided" : true,
            "name" : "color-5",
            "pbrMetallicRoughness" : {
                "baseColorFactor" : [
                    0.06692163646221161,
                    0.06692163646221161,
                    0.06692163646221161,
                    1
                ],
                "metallicFactor" : 0.2596378028392792,
                "roughnessFactor" : 0.013365349732339382
            }
        },
        {
            "doubleSided" : true,
            "name" : "color-5.001",
            "pbrMetallicRoughness" : {
                "baseColorFactor" : [
                    0.06692163646221161,
                    0.06692163646221161,
                    0.06692163646221161,
                    1
                ],
                "metallicFactor" : 0.2596378028392792,
                "roughnessFactor" : 0.013365349732339382
            }
        }
    ],
    "meshes" : [
        {
            "name" : "Mesh_0",
            "primitives" : [
                {
                    "attributes" : {
                        "POSITION" : 0,
                        "NORMAL" : 1,
                        "TEXCOORD_0" : 2
                    },
                    "indices" : 3,
                    "material" : 0
                }
            ]
        },
        {
            "name" : "Mesh_1",
            "primitives" : [
                {
                    "attributes" : {
                        "POSITION" : 4,
                        "NORMAL" : 5,
                        "TEXCOORD_0" : 6
                    },
                    "indices" : 7,
                    "material" : 1
                }
            ]
        },
        {
            "name" : "Mesh_2",
            "primitives" : [
                {
                    "attributes" : {
                        "POSITION" : 8,
                        "NORMAL" : 9,
                        "TEXCOORD_0" : 10
                    },
                    "indices" : 11,
                    "material" : 2
                }
            ]
        },
        {
            "name" : "Mesh_3",
            "primitives" : [
                {
                    "attributes" : {
                        "POSITION" : 12,
                        "NORMAL" : 13,
                        "TEXCOORD_0" : 14
                    },
                    "indices" : 15,
                    "material" : 3
                }
            ]
        }
    ],
    "accessors" : [
        {
            "bufferView" : 0,
            "componentType" : 5126,
            "count" : 3492,
            "max" : [
                28.264955520629883,
                1.7911624908447266,
                2.2932281494140625
            ],
            "min" : [
                -26.549741744995117,
                -3.0021114349365234,
                -2.2858200073242188
            ],
            "type" : "VEC3"
        },
        {
            "bufferView" : 1,
            "componentType" : 5126,
            "count" : 3492,
            "type" : "VEC3"
        },
        {
            "bufferView" : 2,
            "componentType" : 5126,
            "count" : 3492,
            "type" : "VEC2"
        },
        {
            "bufferView" : 3,
            "componentType" : 5123,
            "count" : 17334,
            "type" : "SCALAR"
        },
        {
            "bufferView" : 4,
            "componentType" : 5126,
            "count" : 1856,
            "max" : [
                16.881301879882812,
                9.175724029541016,
                28.61646270751953
            ],
            "min" : [
                -27.24112319946289,
                -4.153803825378418,
                -28.947975158691406
            ],
            "type" : "VEC3"
        },
        {
            "bufferView" : 5,
            "componentType" : 5126,
            "count" : 1856,
            "type" : "VEC3"
        },
        {
            "bufferView" : 6,
            "componentType" : 5126,
            "count" : 1856,
            "type" : "VEC2"
        },
        {
            "bufferView" : 7,
            "componentType" : 5123,
            "count" : 4650,
            "type" : "SCALAR"
        },
        {
            "bufferView" : 8,
            "componentType" : 5126,
            "count" : 2046,
            "max" : [
                4.365593433380127,
                1.6066417694091797,
                11.487335205078125
            ],
            "min" : [
                -3.1959357261657715,
                -1.6045665740966797,
                -10.71990966796875
            ],
            "type" : "VEC3"
        },
        {
            "bufferView" : 9,
            "componentType" : 5126,
            "count" : 2046,
            "type" : "VEC3"
        },
        {
            "bufferView" : 10,
            "componentType" : 5126,
            "count" : 2046,
            "type" : "VEC2"
        },
        {
            "bufferView" : 11,
            "componentType" : 5123,
            "count" : 7551,
            "type" : "SCALAR"
        },
        {
            "bufferView" : 12,
            "componentType" : 5126,
            "count" : 73,
            "max" : [
                9.5367431640625e-07,
                1.4150304794311523,
                1.415863037109375
            ],
            "min" : [
                9.5367431640625e-07,
                -1.4150304794311523,
                -1.4128189086914062
            ],
            "type" : "VEC3"
        },
        {
            "bufferView" : 13,
            "componentType" : 5126,
            "count" : 73,
            "type" : "VEC3"
        },
        {
            "bufferView" : 14,
            "componentType" : 5126,
            "count" : 73,
            "type" : "VEC2"
        },
        {
            "bufferView" : 15,
            "componentType" : 5123,
            "count" : 153,
            "type" : "SCALAR"
        }
    ],
    "bufferViews" : [
        {
            "buffer" : 0,
            "byteLength" : 41904,
            "byteOffset" : 0
        },
        {
            "buffer" : 0,
            "byteLength" : 41904,
            "byteOffset" : 41904
        },
        {
            "buffer" : 0,
            "byteLength" : 27936,
            "byteOffset" : 83808
        },
        {
            "buffer" : 0,
            "byteLength" : 34668,
            "byteOffset" : 111744
        },
        {
            "buffer" : 0,
            "byteLength" : 22272,
            "byteOffset" : 146412
        },
        {
            "buffer" : 0,
            "byteLength" : 22272,
            "byteOffset" : 168684
        },
        {
            "buffer" : 0,
            "byteLength" : 14848,
            "byteOffset" : 190956
        },
        {
            "buffer" : 0,
            "byteLength" : 9300,
            "byteOffset" : 205804
        },
        {
            "buffer" : 0,
            "byteLength" : 24552,
            "byteOffset" : 215104
        },
        {
            "buffer" : 0,
            "byteLength" : 24552,
            "byteOffset" : 239656
        },
        {
            "buffer" : 0,
            "byteLength" : 16368,
            "byteOffset" : 264208
        },
        {
            "buffer" : 0,
            "byteLength" : 15102,
            "byteOffset" : 280576
        },
        {
            "buffer" : 0,
            "byteLength" : 876,
            "byteOffset" : 295680
        },
        {
            "buffer" : 0,
            "byteLength" : 876,
            "byteOffset" : 296556
        },
        {
            "buffer" : 0,
            "byteLength" : 584,
            "byteOffset" : 297432
        },
        {
            "buffer" : 0,
            "byteLength" : 306,
            "byteOffset" : 298016
        }
    ],
    "buffers" : [
        {
            "byteLength" : 298324,
            "uri" : "data:application/octet-stream;base64,"
        }
    ]
}
